<?xml version="1.0" encoding="utf-8"?>
<!-- Generator: Adobe Illustrator 22.1.0, SVG Export Plug-In . SVG Version: 6.00 Build 0)  -->
<svg version="1.1" id="Layer_1" xmlns="http://www.w3.org/2000/svg" xmlns:xlink="http://www.w3.org/1999/xlink" x="0px" y="0px"
	 viewBox="0 0 364.5 86.9" style="enable-background:new 0 0 364.5 86.9;" xml:space="preserve">
<style type="text/css">
	.st0{fill:#FFFFFF;}
</style>
<g>
	<path class="st0" d="M127.6,41.8c-2.1,0-8.5,13.3-15.3,13.3c-4.6,0-7.3-3.3-7.3-9.2c0-20.5,21.8-38.3,25.1-38.3
		c3.3,0,3.8,5.4,0.6,12c-3.1,6.6,6.3,7.9,6.3,7.9c5.7-15,5-23.3-11.1-23.3c-11,0-29.8,22-29.8,39.8c0,9.3,5.5,14.1,15.1,14.1
		C118.7,58.1,132.4,41.8,127.6,41.8z"/>
	<path class="st0" d="M294.5,14.4c-0.2-1.8,3.9-5.6,3.7-8c-0.3-2.4-4.7-6.1-4.7-6.1c0.3,2.5-4,6-3.6,9.6
		C290,12.3,292.4,14.6,294.5,14.4z"/>
	<path class="st0" d="M265.3,14.4c-0.6,1.9-4.3,5.8-6.8,13.4c-5.9,6.6-19.2,11.2-19.2,13.3c0,0.7,0.5,1.2,1.2,1.2
		c2.4,0,17.7-10.8,17.7-10.8c0,10.4-3.4,22.7-8.6,22.7c-1.8,0-3-0.9-3-2.6c0-3.4,1.9-3.6,1.9-6.1c0-1-0.5-1.7-1.7-1.7
		c-1.5,0-2.5,2.9-2.5,5.3c0,4.5,2.2,9.1,8.2,9.1c10.3,0,15.3-13.1,15.3-25.7c0-7.7,3.8-8.4,3.8-11.8
		C271.6,16.1,265.3,14.4,265.3,14.4z"/>
	<path class="st0" d="M165.2,38.1c-0.5,0.6-1.1,1.4-1.9,2.5c-5.8,8.3-10.8,15.1-12.9,15.1c-2.1,0,7.7-14.1,7.7-19.4
		s-3.3-3.9-3.3-9.4c0-5.5,1.3-4.3,1.3-10.1c0-2.7-9.3-0.6-9.3-0.6s-2.7,3.7-2.7,9.7c-10.1,23.1-22.7,29.9-22.7,31.8
		c0,0.8,1.2,1.1,2.5,1.1c5.6,0,20.6-29.3,22.9-29.3c1,0,2.6,1.7,2.6,5.3s-7.3,12.8-7.3,18.8c0,2.8,4.7,4.4,7.3,4.4
		c2.6,0,9.6-7.8,13.5-13.3C169.8,35.9,168,34.2,165.2,38.1z"/>
	<path class="st0" d="M172.4,55.4c-1.8,0-2.8-0.9-2.8-3.2c0-2.9,1.7-7.5,4.2-12.4c0.1,0,0.1,0,0.2,0c7.1,0,21.1-7,21.1-16.1
		c0-3.4-4.8-8.3-7.9-8.3c-7.9,0-17.5,11.9-22,22.8l-2.1,6.8c-0.3,1.3-0.4,2.6-0.4,3.8c0,5.1,1.8,9.5,8.4,9.5
		c6.8,0,13.1-8.9,21.1-18.9l2.3-5.3C188.5,40.9,178,55.4,172.4,55.4z M190.1,20.1c4.3,0-10.1,17.3-15.2,17.6
		C179.7,28.9,186.6,20.1,190.1,20.1z"/>
	<path class="st0" d="M199.5,55.4c-1.8,0-2.8-0.9-2.8-3.2c0-2.9,1.7-7.5,4.2-12.4c0.1,0,0.1,0,0.2,0c7.1,0,21.1-7,21.1-16.1
		c0-3.4-4.8-8.3-7.9-8.3c-7.9,0-17.5,11.9-22,22.8l-2.1,6.8c-0.3,1.3-0.4,2.6-0.4,3.8c0,5.1,1.8,9.5,8.4,9.5
		c6.8,0,17.9-14.1,25.9-24.1l2.3-5.3C220.4,35.7,205.1,55.4,199.5,55.4z M217.2,20.1c4.3,0-10.1,17.3-15.2,17.6
		C206.8,28.9,213.7,20.1,217.2,20.1z"/>
	<path class="st0" d="M341.7,55.4c-1.8,0-2.8-0.9-2.8-3.2c0-2.9,1.7-7.5,4.2-12.4c0.1,0,0.1,0,0.2,0c7.1,0,21.1-7,21.1-16.1
		c0-3.4-4.8-8.3-7.9-8.3c-7.9,0-17.5,11.9-22,22.8l-2.1,6.8c-0.3,1.3-0.4,2.6-0.4,3.8c0,5.1,1.8,9.5,8.4,9.5
		c6.8,0,16.1-8.1,19.7-12.8s2.3-5.3,2.3-5.3C356.4,47,347.2,55.4,341.7,55.4z M359.4,20.1c4.3,0-10.1,17.3-15.2,17.6
		C349,28.9,355.8,20.1,359.4,20.1z"/>
	<path class="st0" d="M220.6,38.9c-3.3,6.3-5.8,11.4-5.8,13.3c0,5.7,5.1,6.1,5.1,6.1c0-3,3.2-10,7.2-18c0.7,3.8,2.9,10,3.9,13.2
		c1.6,4.6,6.8,4.6,7.7,4.6c1.6,0-4.7-13-5.7-21c7.7-4.3,20.3-12.1,20.3-16.9c0-4.8-4.8-4.8-4.8-4.8c0,3.8-11.4,11.5-16.1,14.4
		c4.9-9.7,9.4-18.8,9.4-22.3c0-6.3-4.4-6.8-4.4-6.8c0,6.2-7.2,19.9-13.5,31.7"/>
	<path class="st0" d="M296.2,35.2c-0.2,0.2-0.4,0.5-0.7,0.8c-3.2,4.5-16.5,20.2-19.7,20.2c-0.7,0-1.5-1-1.5-1.9
		c0-6.6,15.6-24.8,15.6-32.3c0-3.9-1.4-6.7-5.3-6.7c0,4.8-16.7,28.4-16.7,35.7c0,4.3,3.2,7.2,6.3,7.2c6.9,0,16.7-13.2,20.3-17.7
		C299.7,33,296.2,35.2,296.2,35.2z"/>
	<path class="st0" d="M335.4,37.2C335.4,37.2,335.4,37.2,335.4,37.2c-2,2.7-12.9,17.3-15.5,17.3c-1.3,0-1.8-1-1.8-2.4
		c0-7.5,20.4-35.9,20.4-44.6c0-6.3-4.4-6.8-4.4-6.8c0,4.8-6.3,16.8-11.3,26.3c-0.8-4.7-5.9-11.6-9-11.6c-6.7,0-22.7,18.2-22.7,37.2
		c0,2.4,3,5.6,7.3,5.6c7,0,10.6-5.5,15-11.9c-1.2,2.7-2,4.7-2,5.8c0,5.7,5.1,6.1,5.1,6.1c6,0,13.9-11,17.5-15.5
		C339.3,34.5,335.4,37.2,335.4,37.2z M301.2,55.7c-1.2,0-2-0.6-2-3.1c0-9.8,12.2-29.7,17.7-29.7c2.1,0,3,1.8,3,4.4
		C319.8,31.6,307.4,55.7,301.2,55.7z"/>
</g>
<g>
	<path class="st0" d="M96.1,77.4L96.1,77.4c0-5.2,3.9-9.5,9.4-9.5c3.4,0,5.4,1.2,7.1,2.8l-2.1,2.4c-1.5-1.4-3-2.3-5.1-2.3
		c-3.5,0-6,2.9-6,6.4v0.1c0,3.6,2.5,6.5,6,6.5c2.2,0,3.7-0.9,5.2-2.4l2.1,2.1c-1.9,2-4,3.2-7.4,3.2C100.1,86.8,96.1,82.6,96.1,77.4z
		"/>
	<path class="st0" d="M116.2,68.2h3.2v7.6h8.7v-7.6h3.2v18.3h-3.2v-7.7h-8.7v7.7h-3.2V68.2z"/>
	<path class="st0" d="M135.7,78.7V68.2h3.2v10.4c0,3.4,1.7,5.2,4.6,5.2c2.8,0,4.6-1.7,4.6-5.1V68.2h3.2v10.4c0,5.5-3.1,8.2-7.8,8.2
		C138.7,86.7,135.7,84,135.7,78.7z"/>
	<path class="st0" d="M155.7,68.2h8.1c2.3,0,4.1,0.7,5.3,1.8c1,1,1.5,2.3,1.5,3.9V74c0,3-1.8,4.8-4.4,5.5l4.9,6.9h-3.8l-4.5-6.4
		h-0.1h-4v6.4h-3.2V68.2z M163.6,77.2c2.3,0,3.8-1.2,3.8-3.1v-0.1c0-2-1.4-3-3.8-3h-4.7v6.1H163.6z"/>
	<path class="st0" d="M173.8,77.4L173.8,77.4c0-5.2,3.9-9.5,9.4-9.5c3.4,0,5.4,1.2,7.1,2.8l-2.1,2.4c-1.5-1.4-3-2.3-5.1-2.3
		c-3.5,0-6,2.9-6,6.4v0.1c0,3.6,2.5,6.5,6,6.5c2.2,0,3.7-0.9,5.2-2.4l2.1,2.1c-1.9,2-4,3.2-7.4,3.2
		C177.7,86.8,173.8,82.6,173.8,77.4z"/>
	<path class="st0" d="M193.8,68.2h3.2v7.6h8.7v-7.6h3.2v18.3h-3.2v-7.7H197v7.7h-3.2V68.2z"/>
	<path class="st0" d="M220.6,77.4L220.6,77.4c0-5.2,4-9.5,9.6-9.5c5.6,0,9.5,4.3,9.5,9.4v0.1c0,5.1-4,9.4-9.6,9.4
		S220.6,82.5,220.6,77.4z M236.4,77.4L236.4,77.4c0-3.6-2.6-6.5-6.2-6.5s-6.2,2.9-6.2,6.4v0.1c0,3.5,2.6,6.5,6.2,6.5
		C233.8,83.8,236.4,80.9,236.4,77.4z"/>
	<path class="st0" d="M243.6,68.2h13.6v2.9h-10.4v5h9.2V79h-9.2v7.4h-3.2V68.2z"/>
	<path class="st0" d="M267.7,77.4L267.7,77.4c0-5.2,3.9-9.5,9.4-9.5c3.4,0,5.4,1.2,7.1,2.8l-2.1,2.4c-1.5-1.4-3-2.3-5.1-2.3
		c-3.5,0-6,2.9-6,6.4v0.1c0,3.6,2.5,6.5,6,6.5c2.2,0,3.7-0.9,5.2-2.4l2.1,2.1c-1.9,2-4,3.2-7.4,3.2
		C271.7,86.8,267.7,82.6,267.7,77.4z"/>
	<path class="st0" d="M287.8,68.2h3.2v7.6h8.7v-7.6h3.2v18.3h-3.2v-7.7H291v7.7h-3.2V68.2z"/>
	<path class="st0" d="M307.6,68.2h8.1c2.3,0,4.1,0.7,5.3,1.8c1,1,1.5,2.3,1.5,3.9V74c0,3-1.8,4.8-4.4,5.5l4.9,6.9h-3.8l-4.5-6.4
		h-0.1h-4v6.4h-3.2V68.2z M315.5,77.2c2.3,0,3.8-1.2,3.8-3.1v-0.1c0-2-1.4-3-3.8-3h-4.7v6.1H315.5z"/>
	<path class="st0" d="M326.6,68.2h3.2v18.3h-3.2V68.2z"/>
	<path class="st0" d="M333.5,83.8l1.9-2.3c1.7,1.5,3.5,2.4,5.8,2.4c2,0,3.2-0.9,3.2-2.3v-0.1c0-1.3-0.7-2-4.1-2.8
		c-3.9-0.9-6.1-2.1-6.1-5.5v-0.1c0-3.1,2.6-5.3,6.2-5.3c2.7,0,4.8,0.8,6.6,2.3l-1.7,2.4c-1.6-1.2-3.3-1.9-5-1.9c-1.9,0-3,1-3,2.2V73
		c0,1.4,0.8,2,4.3,2.9c3.9,0.9,5.9,2.3,5.9,5.3v0.1c0,3.4-2.7,5.5-6.5,5.5C338.3,86.7,335.6,85.7,333.5,83.8z"/>
	<path class="st0" d="M355.5,71.2h-5.8v-3h14.8v3h-5.8v15.3h-3.2V71.2z"/>
</g>
<!-- <g>
	<path class="st0" d="M4.9,45.6c5.9-5.9,16.7-7,28.2-7l0,0l0,0c0.4,0,0.8,0,1.2,0l0,0l0,0l0,0c0.5,0,0.9,0.1,1.4,0.1h0
		c14.4,0.9,29.2,2.4,36.9-5.3c3.6-3.6,3.9-9.3,1.8-11.4c0,0-1.2,5-4.7,8.5c-9.9,9.9-35.8,1.7-53.4,4.2c9.4-9.4,35.8-2.6,45.5-12.3
		c4.1-4.1,3.7-8.8,3.5-10.2c0,0-0.1-0.1-0.1-0.1C65,13,64.3,14.9,61,18.2c-7.9,7.9-18.7,7.4-31.3,7.3c0,0,13.8-1.7,21.8-9.7
		c4-4,3.6-7.4,2.9-9c-14.3-4.9-30.8-1.6-42.3,9.8C2.5,26.3-1.4,39.7,0.7,52.4C1.4,50.1,2.7,47.8,4.9,45.6z"/>
	<path class="st0" d="M80.8,34.9c-0.1,3.2-1.5,6.4-4.6,9.4c-5.9,5.9-16.5,7-27.8,7l0,0l0,0c-0.5,0-1,0-1.4,0l0,0l0,0l0,0
		c-0.4,0-0.7,0-1.1-0.1l0,0l0,0c-14.5-0.9-29.5-2.5-37.2,5.3c-3,3-3.7,7.4-2.7,10c0.3,0.5,0.6,0.9,0.9,1.4c0-0.1,1.2-5,4.7-8.5
		c9.9-9.9,35.8-1.7,53.4-4.2c-9.4,9.4-35.8,2.6-45.5,12.3C14.6,72.2,15.9,77.8,16,78c0,0,0,0,0,0c0-0.2,0.1-2.2,4.1-6.2
		c7.9-7.9,18.7-7.4,31.3-7.3c0,0-13.8,1.7-21.8,9.7c-5.6,5.6-2.6,9.8-2.4,10c14.5,5.2,31.4,2.1,43-9.6C81,63.9,84.5,48.6,80.8,34.9z
		"/>
</g> -->
</svg>
